<?xml version="1.0" encoding="UTF-8"?>
<svg width="500" height="500" version="1.1" viewBox="0 0 132.29 132.29" xmlns="http://www.w3.org/2000/svg" xmlns:cc="http://creativecommons.org/ns#" xmlns:dc="http://purl.org/dc/elements/1.1/" xmlns:rdf="http://www.w3.org/1999/02/22-rdf-syntax-ns#">
 <metadata>
  <rdf:RDF>
   <cc:Work rdf:about="">
    <dc:format>image/svg+xml</dc:format>
    <dc:type rdf:resource="http://purl.org/dc/dcmitype/StillImage"/>
   </cc:Work>
  </rdf:RDF>
 </metadata>
 <path d="m113.85 86.899q0 7.6047-5.4069 11.728-5.3153 4.0314-15.946 4.0314-5.2236 0-8.981-0.73296-3.7573-0.64132-7.5147-2.1989v-11.27q4.0323 1.8324 8.706 3.0235 4.6738 1.1911 8.2478 1.1911 4.0323 0 5.6818-1.1911 1.7412-1.1911 1.7412-3.1152 0-1.2827-0.73312-2.2906-0.64146-1.0078-2.9326-2.2906-2.2911-1.2827-7.1481-3.2984-4.6738-2.0157-7.698-3.9398-3.0242-2.0157-4.4905-4.7644-1.4663-2.8403-1.4663-7.0549 0-6.9633 5.4069-10.445 5.4069-3.4817 14.388-3.4817 4.6738 0 8.8893 0.91624 4.2156 0.91625 8.706 3.0235l-4.1239 9.8036q-3.6657-1.5576-6.9648-2.5654-3.2991-1.0995-6.6899-1.0995-6.0484 0-6.0484 3.2984 0 1.1911 0.73312 2.1989 0.82477 0.91624 3.0242 2.0157 2.2911 1.0995 6.6899 2.9319 4.3072 1.7408 7.4231 3.6649 3.1158 1.8325 4.7654 4.6728 1.7412 2.7487 1.7412 7.2382zm-49.212-35.183v50.026h-10.447l-1.8329-6.4136h-0.73312q-2.3827 3.8481-6.5983 5.589-4.1239 1.7408-8.7977 1.7408-8.0645 0-12.922-4.3063-4.857-4.3979-4.857-14.018v-32.618h13.655v29.228q0 5.3141 1.9245 8.0628 1.9245 2.7487 6.1401 2.7487 6.2317 0 8.5227-4.2146 2.2911-4.3063 2.2911-12.277v-23.547z" fill="#0ff" style="font-variant-caps:normal;font-variant-east-asian:normal;font-variant-ligatures:normal;font-variant-numeric:normal;white-space:pre"/>
</svg>
