<?xml version="1.0" encoding="UTF-8"?>
<svg width="500" height="500" version="1.1" viewBox="0 0 132.29 132.29" xmlns="http://www.w3.org/2000/svg" xmlns:cc="http://creativecommons.org/ns#" xmlns:dc="http://purl.org/dc/elements/1.1/" xmlns:rdf="http://www.w3.org/1999/02/22-rdf-syntax-ns#">
 <metadata>
  <rdf:RDF>
   <cc:Work rdf:about="">
    <dc:format>image/svg+xml</dc:format>
    <dc:type rdf:resource="http://purl.org/dc/dcmitype/StillImage"/>
   </cc:Work>
  </rdf:RDF>
 </metadata>
 <path d="m99.993 50.8q8.0501 0 12.898 4.3979 4.8484 4.3062 4.8484 13.927v32.618h-13.63v-29.228q0-5.4057-1.921-8.0628-1.921-2.7487-6.129-2.7487-6.2205 0-8.5075 4.3063-2.287 4.2146-2.287 12.186v23.547h-13.63v-50.026h10.429l1.8296 6.4136h0.73181q2.3784-3.8481 6.495-5.589 4.208-1.7408 8.8734-1.7408zm-61.839 0q10.337 0 16.375 5.9555 6.0376 5.8638 6.0376 16.767v6.5968h-32.2q0.183 5.7722 3.3847 9.0706 3.2932 3.2984 9.0564 3.2984 4.8483 0 8.7819-0.91624 3.9336-1.0078 8.1416-3.0236v10.537q-3.6591 1.8325-7.7757 2.6571-4.0251 0.91624-9.7882 0.91624-7.5012 0-13.264-2.7487-5.7631-2.8403-9.0564-8.5209-3.2932-5.6806-3.2932-14.293 0-8.7958 2.9273-14.568 3.0188-5.8638 8.3245-8.7958 5.3057-2.9319 12.35-2.9319zm0.09168 9.712q-3.9336 0-6.5864 2.5654-2.5614 2.5654-3.0188 7.9711h19.119q-0.09169-4.5811-2.3784-7.513-2.287-3.0235-7.1353-3.0235z" fill="#0ff" style="font-variant-caps:normal;font-variant-east-asian:normal;font-variant-ligatures:normal;font-variant-numeric:normal;white-space:pre"/>
</svg>
